<svg width="21" height="21" viewBox="0 0 21 21" fill="none" xmlns="http://www.w3.org/2000/svg">
<path d="M10.6914 0.5C9.33141 0.5 8.03141 0.76 6.79141 1.28C5.60474 1.78667 4.54807 2.50333 3.62141 3.43C2.69474 4.35667 1.97807 5.41333 1.47141 6.6C0.951406 7.84 0.691406 9.14 0.691406 10.5C0.691406 11.86 0.951406 13.16 1.47141 14.4C1.97807 15.5867 2.69474 16.6433 3.62141 17.57C4.54807 18.4967 5.60474 19.2133 6.79141 19.72C8.03141 20.24 9.33141 20.5 10.6914 20.5C12.0514 20.5 13.3514 20.24 14.5914 19.72C15.7781 19.2133 16.8347 18.4967 17.7614 17.57C18.6881 16.6433 19.4047 15.5867 19.9114 14.4C20.4314 13.16 20.6914 11.86 20.6914 10.5C20.6914 9.14 20.4247 7.84667 19.8914 6.62C19.3847 5.42 18.6714 4.36 17.7514 3.44C16.8314 2.52 15.7714 1.80667 14.5714 1.3C13.3447 0.766666 12.0514 0.5 10.6914 0.5ZM17.3114 5.12C17.9247 5.86667 18.3947 6.69667 18.7214 7.61C19.0481 8.52333 19.2181 9.46667 19.2314 10.44C17.2714 10.0533 15.2914 9.96 13.2914 10.16L13.0914 9.72C12.9981 9.48 12.8447 9.13333 12.6314 8.68L12.5314 8.48C13.4647 8.13333 14.3347 7.67667 15.1414 7.11C15.9481 6.54333 16.6714 5.88 17.3114 5.12ZM10.6914 1.98C11.7314 1.98 12.7381 2.16333 13.7114 2.53C14.6847 2.89667 15.5647 3.42667 16.3514 4.12C15.7647 4.84 15.0914 5.46 14.3314 5.98C13.5714 6.5 12.7514 6.90667 11.8714 7.2C10.9247 5.46667 9.86474 3.8 8.69141 2.2C9.34474 2.05333 10.0114 1.98 10.6914 1.98ZM7.05141 2.78C8.19807 4.36667 9.25807 6.01333 10.2314 7.72C7.64474 8.4 5.01141 8.74667 2.33141 8.76C2.61141 7.45333 3.16474 6.27333 3.99141 5.22C4.81807 4.16667 5.83807 3.35333 7.05141 2.78ZM2.15141 10.52V10.26C5.13807 10.2733 8.06474 9.86667 10.9314 9.04C11.2514 9.68 11.4847 10.16 11.6314 10.48L11.2914 10.58C9.85141 11.1 8.53474 11.8433 7.34141 12.81C6.14807 13.7767 5.15141 14.9133 4.35141 16.22C3.64474 15.4333 3.10141 14.55 2.72141 13.57C2.34141 12.59 2.15141 11.5733 2.15141 10.52ZM10.6914 19.06C9.74474 19.06 8.82141 18.9067 7.92141 18.6C7.02141 18.2933 6.19807 17.8467 5.45141 17.26C6.18474 15.98 7.13141 14.88 8.29141 13.96C9.45141 13.04 10.7381 12.36 12.1514 11.92L12.2114 11.9C13.0247 14.0067 13.6314 16.1667 14.0314 18.38C12.9647 18.8333 11.8514 19.06 10.6914 19.06ZM15.4714 17.6C15.0981 15.52 14.5447 13.4867 13.8114 11.5C15.6114 11.2333 17.3847 11.3533 19.1314 11.86C18.9447 13.0333 18.5347 14.1167 17.9014 15.11C17.2681 16.1033 16.4581 16.9333 15.4714 17.6Z" fill="white"/>
</svg>
