<?xml version="1.0" encoding="UTF-8"?>
<svg id="Layer_1" xmlns="http://www.w3.org/2000/svg" version="1.1" viewBox="0 0 200 200">
  <!-- Generator: Adobe Illustrator 29.0.0, SVG Export Plug-In . SVG Version: 2.1.0 Build 186)  -->
  <path d="M62.7,157.5c1.4-4.1,4.8-4.2,8.6-4,1.2-2.1,2.7-3.1,5.2-3.2v-33.6h5.6v-22.9h5.6v-18.9h5.6v-18.6h2.9v-17.6h2.9v6.7h4.5v20.5h2.9v20.2h5.6v18.9h5.6v22.9h5.6v22.4c2.5,0,4,1,5.2,3.2,5.8-.7,9.4,1.5,8.6,7.8H62.7v-3.7ZM100.7,48.1h-1.6v10.9c-1,.1-2.4-.4-3.2.4v85.7l.4.4h7.2l.4-.4v-76.2c-.8-.8-2.2-.3-3.2-.4v-20.5ZM93.3,77.9h-2.9v67.6h2.9v-67.6ZM109.5,89.1h-2.9v56.5h2.9v-56.5ZM87.7,96.8h-2.9v53.5h2.1c-.4-.8.8-2.5.8-2.8v-50.7ZM115.1,108h-2.9v39.5c0,.3,1.2,2,.8,2.8h2.1s0-42.3,0-42.3ZM82.1,119.7h-2.9v30.6h2.9v-30.6ZM120.7,150.3v-19.3c-.3-.5-.9-.4-1.5-.4s-.7,0-1,0l-.4.4v19.3h2.9ZM110,157.5v-8.4c0-.4-1.3-.9-1.7-.9-3.7-.4-12.7-.4-16.5,0s-2,.4-2,.9v8.4h20.2ZM86.9,153.3h-11.8c-1.1,0-.8,2.8-1.2,3.1-2.5.8-8.1-1.5-8.3,2.2h21.3v-5.3ZM134.2,158.6c-.2-3.8-5.8-1.4-8.3-2.2-.4-.3,0-3.1-1.2-3.1h-11.8v5.3h21.3Z"/>
  <path d="M100,3c53.5,0,97,43.5,97,97s-43.5,97-97,97S3,153.5,3,100,46.5,3,100,3M100,0C44.8,0,0,44.8,0,100s44.8,100,100,100,100-44.8,100-100S155.2,0,100,0h0Z"/>
</svg>