<?xml version="1.0" encoding="UTF-8"?>
<svg id="Layer_1" xmlns="http://www.w3.org/2000/svg" version="1.1" viewBox="0 0 200 200">
  <!-- Generator: Adobe Illustrator 29.0.0, SVG Export Plug-In . SVG Version: 2.1.0 Build 186)  -->
  <path d="M100,3c53.5,0,97,43.5,97,97s-43.5,97-97,97S3,153.5,3,100,46.5,3,100,3M100,0C44.8,0,0,44.8,0,100s44.8,100,100,100,100-44.8,100-100S155.2,0,100,0h0Z"/>
  <path d="M145.3,73.9v2.1c-1,5.4-5,7.8-9.5,10.1s-12.9,5.9-19.3,8.9l-11.3,33.1c-1,2.1-2.6,3.8-5,4.3-.4,0-.9,0-1.2,0-1.3-.2-3.9-1.3-4.1-2.7l2.5-25.5-27.2,12.5c-1,.3-1.4-.2-1.9-.9l-3.7-8c-.2-1.9,2-1.9,3.1-2.7s.3,0,.2-.4c-3.8-1.6-8.1-2.9-11.8-4.7s-1.5-.7-1.5-1.7,3-5.8,3.5-6.7,1-2.1,2-2.3l17.4,4.2,10-4.7-17.6-12.1c-1.4-1.5.4-5.2,1.9-6.2s4-1.1,5.9-.7l27.8,10.6c.9-.3,1.8-.7,2.6-1.1,7.1-3.2,14.2-7.1,21.4-10.1s13.6-2.6,15.7,4.8ZM117.9,90.9l19.1-8.9c8.7-5.1,5.6-13.5-4.3-10.6l-54.5,25.3-16.7-3.9c-.3,0-.4.2-.6.5-.5.7-1.9,3.2-2.2,4s-.1.3,0,.5l14.3,5.9c.9.6.9,1.8.2,2.5s-4.5,1.9-4.8,2.2c.4,1.6,1.3,3,1.9,4.5s-.1.3.3.3l27.1-12.6c.2-1.4,0-5.3,1-6.1,1.5-1.2,3,.6,2.5,2.2l-3.2,32.3c2,1.2,3.3-.1,4.2-1.8l13.8-40.5c.4-.8,1.3-1.1,2.1-.7,1.9,1,0,3.6-.2,5.1ZM101.4,82l-24.4-9.3c-1.8-.6-4-.4-4.2,1.9l18.1,12.5c3-1.2,6-2.6,8.9-4s1-.4,1.3-.6.3,0,.2-.4Z"/>
</svg>