<?xml version="1.0" encoding="UTF-8"?>
<svg id="Layer_1" xmlns="http://www.w3.org/2000/svg" version="1.1" viewBox="0 0 200 200">
  <!-- Generator: Adobe Illustrator 29.0.0, SVG Export Plug-In . SVG Version: 2.1.0 Build 186)  -->
  <path d="M100,3c53.5,0,97,43.5,97,97s-43.5,97-97,97S3,153.5,3,100,46.5,3,100,3M100,0C44.8,0,0,44.8,0,100s44.8,100,100,100,100-44.8,100-100S155.2,0,100,0h0Z"/>
  <path d="M54.1,139.9c-2.8-.7-4.2-3.7-2.8-6.3s1.8-1.9,2.5-1.9h2.9l.3-.7v-44.2c.4-3.3,5.1-4.2,7.8-5.1,21.3-7.5,42.8-14.4,64.2-21.7,1.4,0,2.7,1,3,2.4.4,2.6-.2,5.9,0,8.6.1.7,1.4.3,1.4,1.7s-1.3,1.3-1.4,1.6v2.8c1.8.5,2,2.8,0,3v3.8h10.7c.5,0,1.7,1,1.8,1.6l.2,25.2c0,1.3-1.6,1.8-2.4,1s-.4-.8-.4-.8v-5.5h-47.2v26.1h9.5l.3-.3v-22.1c0-.3,1.3-1.4,1.8-1.3,7.6.5,16.2-.7,23.6,0s2.2.7,2.2,1.4v22.2h9.8v-14.5c0-.8,1.3-1.3,2.1-1s.8.7.8.8v14.7c2.2-.3,4,.9,4.6,3.1v2.1c-.6,1.6-1.6,2.6-3.3,3.1h-51.5c-1.5-.6-1.6-2.2,0-2.9h50.7c1.8,0,1.7-2.8-.2-2.5H54.6c-1.4.2-1.1,2.6.4,2.5h42.1c1.5.6,1.4,2.3,0,2.9h-42.8ZM129,71.4v-8.4l-68.7,23.5c-.1,0-.4.5-.4.6v44.6h4.4v-26.8c0-1.1,1.7-2.1,2.8-2.2,5.5-.5,11.9.4,17.5,0,.8,0,2.4,1.4,2.4,2v27h4.6v-45.8c0-.5,1.4-1.8,1.8-1.8h35.6v-3.8h-11.4c-.4,0-1-1-1-1.4s.7-1.4,1-1.4h11.4v-3.1h-11.6c-.3,0-.9-1.1-.8-1.5s.8-1.3,1.4-1.3h11ZM141.7,87h-47.2v15.7h47.2v-15.7ZM84.1,105.6h-16.9v4.4h16.9v-4.4ZM116.5,110.9h-9.4v20.7h9.4v-20.7ZM129,110.9h-9.6v20.7h9.6v-20.7ZM84.1,112.9h-16.9v4.2h16.9v-4.2ZM84.1,120h-16.9v4.4h16.9v-4.4ZM84.1,127.3h-16.9v4.4h16.9v-4.4Z"/>
</svg>