<svg width="21" height="21" viewBox="0 0 21 21" fill="none" xmlns="http://www.w3.org/2000/svg">
<path d="M14.4514 0.5H6.95141C5.81807 0.5 4.76474 0.786667 3.79141 1.36C2.84474 1.90667 2.09807 2.65333 1.55141 3.6C0.978073 4.56 0.691406 5.60667 0.691406 6.74V14.24C0.691406 15.3733 0.978073 16.4267 1.55141 17.4C2.09807 18.3467 2.84474 19.0933 3.79141 19.64C4.76474 20.2133 5.81807 20.5 6.95141 20.5H14.4514C15.5847 20.5 16.6314 20.2133 17.5914 19.64C18.5381 19.0933 19.2847 18.3467 19.8314 17.4C20.4047 16.4267 20.6914 15.3733 20.6914 14.24V6.74C20.6914 5.60667 20.4047 4.56 19.8314 3.6C19.2847 2.65333 18.5381 1.90667 17.5914 1.36C16.6314 0.786667 15.5847 0.5 14.4514 0.5ZM18.8114 14.24C18.8114 15.0267 18.6147 15.7567 18.2214 16.43C17.8281 17.1033 17.2981 17.6367 16.6314 18.03C15.9647 18.4233 15.2381 18.62 14.4514 18.62H6.95141C6.15141 18.62 5.41807 18.4233 4.75141 18.03C4.08474 17.6367 3.55474 17.1067 3.16141 16.44C2.76807 15.7733 2.57141 15.04 2.57141 14.24V6.74C2.57141 5.95333 2.76807 5.22667 3.16141 4.56C3.55474 3.89333 4.08807 3.36333 4.76141 2.97C5.43474 2.57667 6.16474 2.38 6.95141 2.38H14.4514C15.2381 2.38 15.9647 2.57667 16.6314 2.97C17.2981 3.36333 17.8281 3.89333 18.2214 4.56C18.6147 5.22667 18.8114 5.95333 18.8114 6.74V14.24ZM10.6914 5.5C9.78474 5.5 8.94807 5.72333 8.18141 6.17C7.41474 6.61667 6.80807 7.22333 6.36141 7.99C5.91474 8.75667 5.69141 9.59333 5.69141 10.5C5.69141 11.4067 5.91474 12.2433 6.36141 13.01C6.80807 13.7767 7.41474 14.3833 8.18141 14.83C8.94807 15.2767 9.78474 15.5 10.6914 15.5C11.5981 15.5 12.4347 15.2767 13.2014 14.83C13.9681 14.3833 14.5747 13.7767 15.0214 13.01C15.4681 12.2433 15.6914 11.4067 15.6914 10.5C15.6914 9.59333 15.4681 8.75667 15.0214 7.99C14.5747 7.22333 13.9681 6.61667 13.2014 6.17C12.4347 5.72333 11.5981 5.5 10.6914 5.5ZM10.6914 13.62C10.1314 13.62 9.61141 13.48 9.13141 13.2C8.65141 12.92 8.27141 12.54 7.99141 12.06C7.71141 11.58 7.57141 11.06 7.57141 10.5C7.57141 9.94 7.71141 9.42 7.99141 8.94C8.27141 8.46 8.65141 8.08 9.13141 7.8C9.61141 7.52 10.1314 7.38 10.6914 7.38C11.2514 7.38 11.7714 7.52 12.2514 7.8C12.7314 8.08 13.1114 8.46 13.3914 8.94C13.6714 9.42 13.8114 9.94 13.8114 10.5C13.8114 11.06 13.6714 11.58 13.3914 12.06C13.1114 12.54 12.7314 12.92 12.2514 13.2C11.7714 13.48 11.2514 13.62 10.6914 13.62ZM16.0714 4.46C16.2581 4.46 16.4147 4.52333 16.5414 4.65C16.6681 4.77667 16.7314 4.93333 16.7314 5.12C16.7314 5.30667 16.6647 5.46667 16.5314 5.6C16.3981 5.73333 16.2414 5.8 16.0614 5.8C15.8814 5.8 15.7247 5.73333 15.5914 5.6C15.4581 5.46667 15.3914 5.30667 15.3914 5.12C15.3914 4.93333 15.4581 4.77667 15.5914 4.65C15.7247 4.52333 15.8847 4.46 16.0714 4.46Z" fill="white"/>
</svg>
