<svg width="219" height="31" viewBox="0 0 219 31" fill="none" xmlns="http://www.w3.org/2000/svg">
<path d="M7.74199 15.7816H5.04609V15.5408C5.20071 15.5408 5.46633 15.2546 5.46633 15.0336V0.534875H0.185547V0.315796H12.6263V0.534875H7.34553V15.0336C7.34553 15.2526 7.58935 15.5408 7.74397 15.5408V15.7816H7.74199Z" fill="white"/>
<path d="M19.7817 12.3493C22.5886 14.4178 26.6087 15.5171 30.1015 15.5171V15.7599C26.7197 15.7599 22.8761 14.7691 20.0929 12.8546C18.3921 11.7099 17.066 10.2375 16.4693 8.47697V15.0553C16.4693 15.2526 16.6914 15.5605 16.8678 15.5605V15.7796H14.1719V15.5605C14.3265 15.5605 14.5703 15.2526 14.5703 15.0553V1.08552C14.5703 0.866444 14.3265 0.558549 14.1719 0.558549V0.315786H16.4693V4.78223C17.2206 2.0546 19.7401 0.0296021 22.7452 0.0296021C26.3688 0.0296021 29.3085 2.95658 29.3085 6.56447C29.3085 10.1724 26.3688 13.0539 22.7452 13.0539C21.6629 13.0539 20.646 12.8132 19.7837 12.3493H19.7817ZM25.8158 2.38421C23.4291 -0.167766 19.5181 0.161838 17.5517 3C15.9163 5.33289 16.0927 8.63289 18.0591 10.723C20.202 13.0105 23.6709 13.0105 25.8158 10.723C27.9586 8.41381 27.9586 4.67368 25.8158 2.38618V2.38421Z" fill="white"/>
<path d="M33.9677 6.76185H38.299V7.00264H33.9677V15.5388H40.9275V15.7796H31.6465V15.5388C31.8229 15.5388 32.0667 15.2526 32.0667 15.0316V1.06185C32.0667 0.82106 31.8229 0.532902 31.6465 0.532902V0.292114H40.9275V0.532902H33.9677V6.75988V6.76185Z" fill="white"/>
<path d="M42.4727 0.315786H44.7701V4.78223C45.5432 2.0546 48.0627 0.0296021 51.046 0.0296021C54.6914 0.0296021 57.6093 2.95658 57.6093 6.56447C57.6093 10.1724 54.6934 13.0539 51.046 13.0539C48.0409 13.0539 45.5432 11.0526 44.7701 8.325V15.0572C44.7701 15.2546 45.0139 15.5625 45.1904 15.5625V15.7816H42.4727V15.5625C42.6491 15.5625 42.8711 15.2546 42.8711 15.0572V1.0875C42.8711 0.868418 42.6491 0.560522 42.4727 0.560522V0.31776V0.315786ZM44.7701 6.5625C44.7701 8.08026 45.3014 9.57631 46.3837 10.7211C48.5047 13.0086 51.9955 13.0086 54.1185 10.7211C56.2832 8.41184 56.2832 4.67171 54.1185 2.38421C51.7537 -0.167766 47.8426 0.161838 45.8762 3C45.1249 4.05592 44.7721 5.30921 44.7721 6.56447L44.7701 6.5625Z" fill="white"/>
<path d="M59.1523 0.315786H61.4498V4.78223C62.2229 2.0546 64.7424 0.0296021 67.7257 0.0296021C71.3711 0.0296021 74.289 2.95658 74.289 6.56447C74.289 10.1724 71.3731 13.0539 67.7257 13.0539C64.7206 13.0539 62.2229 11.0526 61.4498 8.325V15.0572C61.4498 15.2546 61.6936 15.5625 61.87 15.5625V15.7816H59.1523V15.5625C59.3288 15.5625 59.5508 15.2546 59.5508 15.0572V1.0875C59.5508 0.868418 59.3288 0.560522 59.1523 0.560522V0.31776V0.315786ZM61.4498 6.5625C61.4498 8.08026 61.981 9.57631 63.0634 10.7211C65.1844 13.0086 68.6752 13.0086 70.7982 10.7211C72.9629 8.41184 72.9629 4.67171 70.7982 2.38421C68.4334 -0.167766 64.5223 0.161838 62.5559 3C61.8046 4.05592 61.4518 5.30921 61.4518 6.56447L61.4498 6.5625Z" fill="white"/>
<path d="M77.8895 0.337524H80.5635L85.9335 14.6369C86.0882 15.0316 86.332 15.5388 86.7066 15.5388V15.7796H83.6361V15.5388C83.9671 15.5388 84.0999 15.1421 83.9671 14.7474L78.7081 0.68884L75.925 8.65265C75.1519 10.875 73.582 15.5605 77.6476 15.5605H79.283V15.7796H77.6476C73.2291 15.7796 74.9299 10.7645 75.7704 8.40989L78.3117 1.08358C78.4227 0.665156 78.1789 0.578314 77.8914 0.578314V0.337524H77.8895Z" fill="white"/>
<path d="M99.4746 15.7815L88.14 2.18483V10.4783C88.14 13.4269 89.1787 15.5388 92.9351 15.5388V15.7796C89.0241 15.7796 87.8961 13.5572 87.8961 10.4783V1.89865L86.5918 0.313782H89.0221L99.9821 13.4487V0.313782H100.202V15.7796H99.4726L99.4746 15.7815Z" fill="white"/>
<path d="M107.471 10.6994H107.713C107.713 13.4941 109.746 15.5823 112.64 15.5823C114.254 15.5823 117.083 14.7454 117.083 12.7441C117.061 8.52041 108.111 8.32107 108.42 3.4816C108.553 1.30265 110.498 0.203308 112.177 0.203308C114.851 0.203308 116.595 2.11778 117.989 0.840809L118.165 1.01647C115.757 4.00857 115.027 0.422387 112.177 0.422387C108.906 0.422387 108.729 3.94147 111.051 5.3941C113.37 6.82502 118.054 8.34278 118.054 11.2678C118.054 14.5244 115.182 15.7994 112.64 15.7994C109.592 15.7994 107.471 13.6204 107.471 10.6954V10.6994Z" fill="white"/>
<path d="M122.03 6.76185H126.362V7.00264H122.03V15.5388H128.99V15.7796H119.709V15.5388C119.885 15.5388 120.129 15.2526 120.129 15.0316V1.06185C120.129 0.82106 119.885 0.532902 119.709 0.532902V0.292114H128.99V0.532902H122.03V6.75988V6.76185Z" fill="white"/>
<path d="M136.149 12.3493C138.956 14.4178 142.976 15.5171 146.469 15.5171V15.7599C143.087 15.7599 139.243 14.7691 136.46 12.8546C134.759 11.7099 133.433 10.2375 132.837 8.47697V15.0553C132.837 15.2526 133.059 15.5605 133.235 15.5605V15.7796H130.539V15.5605C130.694 15.5605 130.938 15.2526 130.938 15.0553V1.08552C130.938 0.866444 130.694 0.558549 130.539 0.558549V0.315786H132.837V4.78223C133.588 2.0546 136.107 0.0296021 139.112 0.0296021C142.736 0.0296021 145.676 2.95658 145.676 6.56447C145.676 10.1724 142.736 13.0539 139.112 13.0539C138.03 13.0539 137.013 12.8132 136.151 12.3493H136.149ZM142.181 2.38421C139.794 -0.167766 135.883 0.161838 133.917 3C132.281 5.33289 132.458 8.63289 134.424 10.723C136.567 13.0105 140.036 13.0105 142.181 10.723C144.324 8.41381 144.324 4.67368 142.181 2.38618V2.38421Z" fill="white"/>
<path d="M150.331 6.76185H154.662V7.00264H150.331V15.5388H157.291V15.7796H148.01V15.5388C148.186 15.5388 148.43 15.2526 148.43 15.0316V1.06185C148.43 0.82106 148.186 0.532902 148.01 0.532902V0.292114H157.291V0.532902H150.331V6.75988V6.76185Z" fill="white"/>
<path d="M171.721 15.7815L160.386 2.18483V10.4783C160.386 13.4269 161.425 15.5388 165.181 15.5388V15.7796C161.27 15.7796 160.142 13.5572 160.142 10.4783V1.89865L158.838 0.313782H161.268L172.228 13.4487V0.313782H172.448V15.7796H171.719L171.721 15.7815Z" fill="white"/>
<path d="M173.994 0.315796H176.69V0.55856C176.535 0.55856 176.292 0.844744 176.292 1.08553V15.0336C176.292 15.2526 176.535 15.5625 176.69 15.5625V15.7816H173.994V15.5625C174.171 15.5625 174.414 15.2546 174.414 15.0336V1.08553C174.414 0.844744 174.171 0.55856 173.994 0.55856V0.315796Z" fill="white"/>
<path d="M191.25 14.2855C192.023 17.3881 189.88 19.6085 185.438 19.7644V19.5217C189.658 19.3677 191.714 17.3427 191.05 14.4394C189.702 15.4519 188.045 16.0223 186.233 16.0223C181.814 16.0223 178.234 12.4579 178.234 8.05852C178.234 3.65918 181.814 0.072998 186.233 0.072998C190.651 0.072998 194.253 3.65918 194.253 8.05852C194.253 10.5888 193.06 12.8112 191.248 14.2855H191.25ZM188.621 15.1658C184.71 15.1223 182.169 10.5237 184.379 8.89537C185.109 8.3901 185.969 8.41181 186.853 8.78484C188.6 9.53287 190.257 11.6881 190.963 13.4487C191.315 13.0085 191.603 12.525 191.825 11.9526C193.26 8.45523 191.89 3.87826 188.776 1.74471C185.706 -0.367135 182.058 0.732208 180.623 4.16444C179.186 7.66181 180.558 12.2388 183.694 14.3506C185.329 15.4737 187.097 15.6927 188.621 15.1638V15.1658ZM190.808 13.6697C190.122 11.9309 188.465 9.75392 186.764 9.00589C184.621 8.10392 182.942 9.81905 184.266 12.2408C185.194 13.9559 187.117 15.144 189.238 14.9033C189.813 14.5954 190.342 14.1769 190.806 13.6717L190.808 13.6697Z" fill="white"/>
<path d="M196.219 8.80655V1.06181C196.219 0.842729 195.999 0.532861 195.799 0.532861V0.313782H198.495V0.532861C198.34 0.532861 198.096 0.840756 198.096 1.06181V8.80655C198.118 18.1776 207.798 17.3427 207.798 8.80655V0.313782H208.039V8.80655C208.039 18.6631 196.219 18.3769 196.219 8.80655Z" fill="white"/>
<path d="M211.905 6.76185H216.236V7.00264H211.905V15.5388H218.865V15.7796H209.584V15.5388C209.76 15.5388 210.004 15.2526 210.004 15.0316V1.06185C210.004 0.82106 209.76 0.532902 209.584 0.532902V0.292114H218.865V0.532902H211.905V6.75988V6.76185Z" fill="white"/>
<path d="M63.8401 30.2131L62.506 28.3223C62.3831 28.3322 62.2503 28.3401 62.1175 28.3401H60.5891V30.2131H59.707V24.0572H62.1175C63.7251 24.0572 64.6964 24.8664 64.6964 26.2026C64.6964 27.1519 64.2009 27.8388 63.3366 28.1467L64.8035 30.2131H63.8401ZM63.8143 26.2026C63.8143 25.3223 63.2216 24.821 62.0917 24.821H60.5891V27.5921H62.0917C63.2216 27.5921 63.8143 27.0828 63.8143 26.2026Z" fill="white"/>
<path d="M75.316 29.4473V30.2131H70.8281V24.0572H75.1911V24.823H71.7102V26.7138H74.8105V27.4618H71.7102V29.4493H75.314L75.316 29.4473Z" fill="white"/>
<path d="M80.9277 29.5085L81.2548 28.8217C81.7127 29.2342 82.4997 29.5342 83.2946 29.5342C84.363 29.5342 84.8229 29.1197 84.8229 28.5848C84.8229 27.0809 81.0784 28.0302 81.0784 25.7427C81.0784 24.7934 81.8198 23.9842 83.4452 23.9842C84.1707 23.9842 84.92 24.1776 85.4334 24.5289L85.1421 25.2316C84.6029 24.8881 83.9943 24.7302 83.4452 24.7302C82.3946 24.7302 81.9427 25.1704 81.9427 25.7072C81.9427 27.2112 85.6892 26.2697 85.6892 28.5296C85.6892 29.471 84.9299 30.2802 83.2946 30.2802C82.349 30.2802 81.4213 29.9625 80.9277 29.5066V29.5085Z" fill="white"/>
<path d="M91.709 24.0552H92.5911V30.2112H91.709V24.0552Z" fill="white"/>
<path d="M99.0859 24.0552H101.691C103.679 24.0552 105.029 25.3046 105.029 27.1342C105.029 28.9638 103.677 30.2131 101.691 30.2131H99.0859V24.0572V24.0552ZM101.639 29.4473C103.167 29.4473 104.147 28.5158 104.147 27.1342C104.147 25.7526 103.165 24.821 101.639 24.821H99.97V29.4473H101.639Z" fill="white"/>
<path d="M115.582 29.4473V30.2131H111.094V24.0572H115.457V24.823H111.976V26.7138H115.076V27.4618H111.976V29.4493H115.58L115.582 29.4473Z" fill="white"/>
<path d="M126.902 24.0552V30.2112H126.177L122.466 25.6204V30.2112H121.584V24.0552H122.308L126.018 28.646V24.0552H126.902Z" fill="white"/>
<path d="M132.967 27.1342C132.967 25.3144 134.362 23.9861 136.244 23.9861C137.197 23.9861 138.028 24.3118 138.593 24.9434L138.018 25.498C137.54 24.9967 136.959 24.7677 136.277 24.7677C134.882 24.7677 133.849 25.7704 133.849 27.1342C133.849 28.498 134.882 29.5006 136.277 29.5006C136.957 29.5006 137.54 29.2618 138.018 28.7625L138.593 29.3171C138.028 29.9506 137.197 30.2842 136.234 30.2842C134.362 30.2842 132.965 28.9559 132.965 27.1361L132.967 27.1342Z" fill="white"/>
<path d="M148.972 29.4473V30.2131H144.484V24.0572H148.847V24.823H145.366V26.7138H148.467V27.4618H145.366V29.4493H148.97L148.972 29.4473Z" fill="white"/>
<path d="M154.582 29.5085L154.909 28.8217C155.367 29.2342 156.154 29.5342 156.949 29.5342C158.017 29.5342 158.477 29.1197 158.477 28.5848C158.477 27.0809 154.733 28.0302 154.733 25.7427C154.733 24.7934 155.474 23.9842 157.1 23.9842C157.823 23.9842 158.574 24.1776 159.088 24.5289L158.796 25.2316C158.257 24.8881 157.649 24.7302 157.1 24.7302C156.049 24.7302 155.597 25.1704 155.597 25.7072C155.597 27.2112 159.343 26.2697 159.343 28.5296C159.343 29.471 158.584 30.2802 156.949 30.2802C156.003 30.2802 155.076 29.9625 154.582 29.5066V29.5085Z" fill="white"/>
</svg>
