<svg width="23" height="22" viewBox="0 0 23 22" fill="none" xmlns="http://www.w3.org/2000/svg">
<path d="M11.8335 9.71333C11.1931 9.71333 10.651 9.49157 10.2073 9.04805C9.76368 8.60439 9.54184 8.06233 9.54184 7.42189C9.54184 6.78129 9.76368 6.23924 10.2073 5.79572C10.651 5.35205 11.1931 5.13022 11.8335 5.13022C12.474 5.13022 13.016 5.35205 13.4597 5.79572C13.9033 6.23924 14.1252 6.78129 14.1252 7.42189C14.1252 8.06233 13.9033 8.60439 13.4597 9.04805C13.016 9.49157 12.474 9.71333 11.8335 9.71333ZM5.70766 12.5516C5.25207 12.5516 4.86203 12.3893 4.53753 12.0648C4.21303 11.7403 4.05078 11.3502 4.05078 10.8945V3.9491C4.05078 3.49336 4.21303 3.10324 4.53753 2.77874C4.86203 2.45424 5.25207 2.29199 5.70766 2.29199H17.9681C18.4238 2.29199 18.8139 2.45424 19.1384 2.77874C19.4629 3.10324 19.6252 3.49336 19.6252 3.9491V10.8945C19.6252 11.3502 19.4629 11.7403 19.1384 12.0648C18.8139 12.3893 18.4238 12.5516 17.9681 12.5516H5.70766ZM7.08266 11.1766H16.5931C16.5931 10.7194 16.7553 10.329 17.0798 10.0053C17.4043 9.68155 17.7944 9.51968 18.2502 9.51968V5.3241C17.7931 5.3241 17.4026 5.16185 17.0789 4.83735C16.755 4.51285 16.5931 4.12273 16.5931 3.66699H7.08266C7.08266 4.1241 6.92041 4.51453 6.59591 4.83826C6.27141 5.16215 5.88129 5.3241 5.42555 5.3241V9.51968C5.88282 9.51968 6.27332 9.68193 6.59705 10.0064C6.92079 10.3309 7.08266 10.721 7.08266 11.1766ZM11.8422 19.7087L15.1828 16.3681L14.2256 15.4109L12.5297 17.1067V13.8209H11.146V17.1067L9.45018 15.4109L8.49295 16.3681L11.8422 19.7087Z" fill="white"/>
</svg>
