<svg width="22" height="22" viewBox="0 0 22 22" fill="none" xmlns="http://www.w3.org/2000/svg">
<path d="M11.0007 10.8768C11.4567 10.8768 11.8466 10.7144 12.1703 10.3896C12.4942 10.0648 12.6562 9.67437 12.6562 9.21833C12.6562 8.76228 12.4938 8.37232 12.169 8.04843C11.8442 7.72469 11.4537 7.56283 10.9975 7.56283C10.5414 7.56283 10.1515 7.72523 9.82781 8.05003C9.50392 8.37484 9.34197 8.76534 9.34197 9.22153C9.34197 9.67758 9.50438 10.0675 9.82918 10.3912C10.154 10.7149 10.5445 10.8768 11.0007 10.8768ZM10.9991 17.8877C12.7924 16.2823 14.1647 14.7425 15.1161 13.2682C16.0674 11.7939 16.5431 10.5026 16.5431 9.39433C16.5431 7.72324 16.0122 6.34947 14.9504 5.27299C13.8886 4.19652 12.5715 3.65828 10.9991 3.65828C9.42669 3.65828 8.10959 4.19652 7.04779 5.27299C5.98598 6.34947 5.45508 7.72324 5.45508 9.39433C5.45508 10.5026 5.93075 11.7939 6.8821 13.2682C7.83345 14.7425 9.20577 16.2823 10.9991 17.8877ZM10.9991 19.7174C8.69213 17.7184 6.96223 15.8581 5.80937 14.1365C4.65651 12.4147 4.08008 10.834 4.08008 9.39433C4.08008 7.27896 4.76429 5.5664 6.13272 4.25664C7.50131 2.94687 9.12343 2.29199 10.9991 2.29199C12.8747 2.29199 14.4968 2.94687 15.8654 4.25664C17.2339 5.5664 17.9181 7.27896 17.9181 9.39433C17.9181 10.834 17.3416 12.4147 16.1888 14.1365C15.0359 15.8581 13.306 17.7184 10.9991 19.7174Z" fill="white"/>
</svg>
