<svg width="23" height="22" viewBox="0 0 23 22" fill="none" xmlns="http://www.w3.org/2000/svg">
<path d="M7.97254 18.7913C6.68799 18.7913 5.60059 18.3462 4.71035 17.456C3.82012 16.5657 3.375 15.4784 3.375 14.1938C3.375 13.6545 3.46697 13.1304 3.65092 12.6215C3.83486 12.1126 4.0984 11.6513 4.44154 11.2378L7.67806 7.34538L5.61373 3.20801H16.7196L14.6553 7.34538L17.8918 11.2378C18.2349 11.6513 18.4985 12.1126 18.6824 12.6215C18.8664 13.1304 18.9583 13.6545 18.9583 14.1938C18.9583 15.4784 18.5108 16.5657 17.6159 17.456C16.7211 18.3462 15.636 18.7913 14.3608 18.7913H7.97254ZM11.1667 14.4282C10.7096 14.4282 10.3191 14.2664 9.9954 13.9426C9.67151 13.6189 9.50956 13.2285 9.50956 12.7714C9.50956 12.3141 9.67151 11.9236 9.9954 11.5999C10.3191 11.2761 10.7096 11.1143 11.1667 11.1143C11.6238 11.1143 12.0142 11.2761 12.3379 11.5999C12.6618 11.9236 12.8238 12.3141 12.8238 12.7714C12.8238 13.2285 12.6618 13.6189 12.3379 13.9426C12.0142 14.2664 11.6238 14.4282 11.1667 14.4282ZM8.93665 6.76009H13.4054L14.4896 4.58301H7.84375L8.93665 6.76009ZM7.97254 17.4163H14.3608C15.2611 17.4163 16.0232 17.1028 16.6472 16.4758C17.2713 15.8488 17.5833 15.0882 17.5833 14.1938C17.5833 13.8154 17.5184 13.4485 17.3885 13.0931C17.2587 12.7376 17.0733 12.4165 16.8324 12.1297L13.5076 8.13509H8.84865L5.50969 12.1155C5.26876 12.4023 5.08191 12.7258 4.94915 13.086C4.81638 13.4461 4.75 13.8154 4.75 14.1938C4.75 15.0882 5.0635 15.8488 5.6905 16.4758C6.3175 17.1028 7.07818 17.4163 7.97254 17.4163Z" fill="white"/>
</svg>
